<?xml version="1.0" encoding="UTF-8" standalone="no"?>
<!-- Created with Inkscape (http://www.inkscape.org/) -->

<svg
   width="210mm"
   height="297mm"
   viewBox="0 0 210 297"
   version="1.1"
   id="svg1"
   inkscape:version="1.3.2 (091e20ef0f, 2023-11-25, custom)"
   sodipodi:docname="projection_prove.svg"
   xmlns:inkscape="http://www.inkscape.org/namespaces/inkscape"
   xmlns:sodipodi="http://sodipodi.sourceforge.net/DTD/sodipodi-0.dtd"
   xmlns="http://www.w3.org/2000/svg"
   xmlns:svg="http://www.w3.org/2000/svg">
  <sodipodi:namedview
     id="namedview1"
     pagecolor="#ffffff"
     bordercolor="#000000"
     borderopacity="0.25"
     inkscape:showpageshadow="2"
     inkscape:pageopacity="0.0"
     inkscape:pagecheckerboard="0"
     inkscape:deskcolor="#d1d1d1"
     inkscape:document-units="mm"
     inkscape:zoom="0.79642256"
     inkscape:cx="396.7743"
     inkscape:cy="561.25984"
     inkscape:window-width="1918"
     inkscape:window-height="1044"
     inkscape:window-x="0"
     inkscape:window-y="0"
     inkscape:window-maximized="1"
     inkscape:current-layer="layer1" />
  <defs
     id="defs1" />
  <g
     inkscape:label="Layer 1"
     inkscape:groupmode="layer"
     id="layer1">
    <path
       style="fill:#000000;fill-opacity:0.027451;fill-rule:evenodd;stroke:#000000;stroke-width:1"
       d="m 41.917458,94.107618 c 101.296952,0 101.296952,0 101.296952,0 -7.81873,9.128122 -8.47342,8.473422 -8.47342,8.473422"
       id="path1" />
    <path
       style="fill:#000000;fill-opacity:0.027451;fill-rule:evenodd;stroke:#000000;stroke-width:1"
       d="m 144.03197,95.049757 c -8.85625,-8.856247 -8.85625,-8.856247 -8.85625,-8.856247 l -0.83223,1.441463"
       id="path2" />
    <path
       style="fill:#000000;fill-opacity:0.027451;fill-rule:evenodd;stroke:#000000;stroke-width:1"
       d="M 42.707766,94.900521 C 71.788236,27.54268 71.788236,27.54268 71.788236,27.54268 c 1.689624,9.211174 1.689624,9.211174 1.689624,9.211174"
       id="path3" />
    <path
       style="fill:#000000;fill-opacity:0.027451;fill-rule:evenodd;stroke:#000000;stroke-width:1"
       d="m 71.661059,28.697645 c -6.248493,3.127491 -6.248493,3.127491 -6.248493,3.127491"
       id="path4" />
    <path
       style="fill:#000000;fill-opacity:0.027451;fill-rule:evenodd;stroke:#000000;stroke-width:1"
       d="M 42.596162,93.436698 C 111.6008,54.3249 111.6008,54.3249 111.6008,54.3249 c -6.1278,9.152777 -6.1278,9.152777 -6.1278,9.152777"
       id="path5" />
    <path
       style="fill:#000000;fill-opacity:0.027451;fill-rule:evenodd;stroke:#000000;stroke-width:1"
       d="m 103.78986,54.24444 c 0,0 0,0 6.64559,0.996646 C 72.342361,28.630165 72.342361,28.630165 72.342361,28.630165 c 2.905581,5.737193 2.905581,5.737193 2.905581,5.737193"
       id="path6" />
    <path
       style="fill:#000000;fill-opacity:0.027451;fill-rule:evenodd;stroke:#000000;stroke-width:1"
       d="m 73.105417,27.294816 c 4.754821,1.188707 4.754821,1.188707 4.754821,1.188707"
       id="path7" />
    <path
       style="fill:#000000;fill-opacity:0.027451;fill-rule:evenodd;stroke:#000000;stroke-width:1"
       d="m 72.081519,94.102427 c 0,0 0,0 0,-63.041646 -1.73331,6.468803 -1.73331,6.468803 -1.73331,6.468803"
       id="path8" />
    <path
       style="fill:#000000;fill-opacity:0.027451;fill-rule:evenodd;stroke:#000000;stroke-width:1"
       d="m 73.428547,29.425664 c 1.745199,6.513171 1.745199,6.513171 1.745199,6.513171"
       id="path9" />
    <path
       style="fill:#000000;fill-opacity:0.027451;fill-rule:evenodd;stroke:#000000;stroke-width:1"
       d="m 109.7853,94.245175 c 0,0 0,0 0,-39.434931 -2.26674,8.459575 -2.26674,8.459575 -2.26674,8.459575"
       id="path10" />
    <path
       style="fill:#000000;fill-opacity:0.027451;fill-rule:evenodd;stroke:#000000;stroke-width:1"
       d="m 109.66331,55.134673 c 3.30147,5.718316 3.30147,5.718316 3.30147,5.718316"
       id="path11" />
    <path
       style="fill:#000000;fill-opacity:0.027451;fill-rule:evenodd;stroke:#000000;stroke-width:1"
       d="m 119.0938,46.783884 c 0.85765,-0.886185 -3.78521,18.24633 -2.34627,16.231806"
       id="path12" />
    <path
       style="fill:#000000;fill-opacity:0.027451;fill-rule:evenodd;stroke:#000000;stroke-width:1"
       d="m 119.41044,47.160222 c 0.0203,5.323157 1.64613,10.183987 3.5765,13.860883"
       id="path13" />
    <path
       style="fill:#000000;fill-opacity:0.027451;fill-rule:evenodd;stroke:#000000;stroke-width:1"
       d="m 118.0712,56.581624 c 1.65918,-0.153355 3.48797,0.41543 4.97803,-0.415269"
       id="path14" />
    <path
       style="fill:#000000;fill-opacity:0.027451;fill-rule:evenodd;stroke:#000000;stroke-width:1"
       d="m 128.64498,62.530344 c 0.26993,-2.577444 2.44559,-4.165526 3.53367,-6.286125 2.27548,-4.434765 -0.9097,6.077932 -0.9097,8.814073"
       id="path15" />
    <path
       style="fill:#000000;fill-opacity:0.027451;fill-rule:evenodd;stroke:#000000;stroke-width:1"
       d="m 107.56751,115.82745 c 1.05869,-4.5315 1.9016,-9.34163 2.42802,-14.03477 1.59248,4.45899 1.79733,9.17227 1.79733,13.85959"
       id="path16" />
    <path
       style="fill:#000000;fill-opacity:0.027451;fill-rule:evenodd;stroke:#000000;stroke-width:1"
       d="m 108.83407,112.49752 3.11971,-0.44122"
       id="path17" />
    <path
       style="fill:#000000;fill-opacity:0.027451;fill-rule:evenodd;stroke:#000000;stroke-width:1"
       d="m 114.42982,114.90738 c 3.92149,-4.12094 1.99069,-0.18813 1.99069,3.23779"
       id="path18" />
    <path
       style="fill:#000000;fill-opacity:0.027451;fill-rule:evenodd;stroke:#000000;stroke-width:1"
       d="m 107.01209,101.72909 c -0.29241,-1.4752 -0.88194,-3.566664 0.34259,-4.482302 3.39402,-2.537867 3.06419,6.133622 7.24254,4.301922"
       id="path19" />
    <path
       style="fill:#000000;fill-opacity:0.027451;fill-rule:evenodd;stroke:#000000;stroke-width:1"
       d="m 75.560689,103.96505 c 0.333438,5.0229 -1.284637,13.28486 -2.073746,16.53158"
       id="path20" />
    <path
       style="fill:#000000;fill-opacity:0.027451;fill-rule:evenodd;stroke:#000000;stroke-width:1"
       d="m 75.616492,104.82544 c 1.869662,4.59201 4.712904,9.0718 6.631318,12.99271"
       id="path21" />
    <path
       style="fill:#000000;fill-opacity:0.027451;fill-rule:evenodd;stroke:#000000;stroke-width:1"
       d="m 76.079775,112.63897 c 1.247029,-0.0134 2.516317,0.19638 3.564821,-0.30107"
       id="path22" />
    <path
       style="fill:#000000;fill-opacity:0.027451;fill-rule:evenodd;stroke:#000000;stroke-width:1"
       d="m 89.665542,118.36708 c -0.709417,-0.75138 -1.414619,-1.50675 -2.12825,-2.25413 -0.713629,-0.74737 1.917112,1.24257 2.12825,2.25413 0.216188,1.03575 -0.602647,2.02864 -0.88504,3.04833 -0.317023,1.14473 -0.967933,2.71743 -2.054283,3.44024 -0.285403,0.1899 -1.31609,0.33221 -0.973283,0.33221 2.314745,0 5.68733,-1.26676 7.374906,-1.37298"
       id="path23" />
    <path
       style="fill:#000000;fill-opacity:0.027451;fill-rule:evenodd;stroke:#000000;stroke-width:1"
       d="m 71.420984,107.20804 c 1.601808,-13.273301 6.402054,-0.87278 7.886205,-0.32054 2.226993,0.82865 4.785468,-1.16704 6.497656,-2.02313"
       id="path24" />
    <path
       style="fill:#000000;fill-opacity:0.027451;fill-rule:evenodd;stroke:#000000;stroke-width:1"
       d="m 71.833657,14.238517 c 2.56526,1.759254 -1.78825,16.155162 -1.78825,11.174614"
       id="path25" />
    <path
       style="fill:#000000;fill-opacity:0.027451;fill-rule:evenodd;stroke:#000000;stroke-width:1"
       d="m 73.319539,11.80141 c 2.396886,3.499824 2.828919,8.86644 6.919409,10.637361"
       id="path26" />
    <path
       style="fill:#000000;fill-opacity:0.027451;fill-rule:evenodd;stroke:#000000;stroke-width:1"
       d="m 74.709389,20.801056 c 1.713127,0.413317 2.61029,-0.234216 3.90093,-0.664429"
       id="path27" />
    <path
       style="fill:#000000;fill-opacity:0.027451;fill-rule:evenodd;stroke:#000000;stroke-width:1"
       d="m 85.02362,23.100605 c 0.05772,-5.274478 3.515736,0.902424 3.206652,3.07688 -0.425079,2.990494 -4.189902,3.134207 -3.593372,2.839398 1.659885,-0.820327 4.536749,-1.439164 6.410709,-1.439164"
       id="path28" />
    <path
       style="fill:#000000;fill-opacity:0.027451;fill-rule:evenodd;stroke:#000000;stroke-width:1"
       d="m 74.970232,21.577089 c -0.915755,0 -1.83151,0 -2.747262,0"
       id="path29" />
    <path
       style="fill:#000000;fill-opacity:0.027451;fill-rule:evenodd;stroke:#000000;stroke-width:1"
       d="m 72.508466,12.892788 c 2.00972,2.358384 1.400054,6.216229 -0.638474,8.254758"
       id="path30" />
    <path
       style="fill:#000000;fill-opacity:0.027451;fill-rule:evenodd;stroke:#000000;stroke-width:1"
       d="m 104.76185,34.416671 c -1.22454,-2.040903 -0.35094,-1.661075 -2.32551,-1.661075 -5.004381,0 -4.033148,8.653423 0.6852,3.967112 0.66928,-0.664741 0.93976,-1.674333 1.64031,-2.306037 0.17849,-0.160948 4.48441,-2.328031 3.62581,-3.784134 -0.21027,-0.356603 -1.89012,1.962875 -1.91543,1.993289 -0.52792,0.634579 -1.96918,1.006994 -1.71038,1.790845 0.66083,2.001568 4.82361,2.234663 6.63261,2.234663"
       id="path31" />
    <path
       style="fill:#000000;fill-opacity:0.027451;fill-rule:evenodd;stroke:#000000;stroke-width:1"
       d="m 115.14745,37.759581 c 2.08214,-4.568274 2.98801,2.245426 2.12047,4.178639 -0.95823,2.135288 -3.81391,4.539268 -5.75796,5.739789 -0.71735,0.442989 -2.19087,1.947285 -2.27359,1.108247 -0.17362,-1.760914 3.88291,-3.828683 4.9339,-4.221462"
       id="path32" />
    <path
       style="fill:#000000;fill-opacity:0.027451;fill-rule:evenodd;stroke:#000000;stroke-width:1"
       d="m 95.736247,30.727271 c 3.81425,0.644541 7.520013,-1.440463 11.168123,-1.440463"
       id="path33" />
    <path
       style="fill:#000000;fill-opacity:0.027451;fill-rule:evenodd;stroke:#000000;stroke-width:1"
       d="m 107.18338,32.588192 c -3.9453,-1.654797 -8.007451,0.328829 -8.147046,5.014367 -0.0071,0.239104 0.478425,0 0.717638,0 2.213238,0 7.253748,-5.166318 7.429408,-5.014367 1.31287,1.135689 -2.69398,7.094968 5.97078,3.217031"
       id="path34" />
  </g>
</svg>
