<?xml version="1.0" encoding="UTF-8" standalone="no"?>
<!-- Created with Inkscape (http://www.inkscape.org/) -->

<svg
   width="210mm"
   height="297mm"
   viewBox="0 0 210 297"
   version="1.1"
   id="svg1"
   inkscape:version="1.3.2 (091e20ef0f, 2023-11-25, custom)"
   sodipodi:docname="projection-a-b.svg"
   xmlns:inkscape="http://www.inkscape.org/namespaces/inkscape"
   xmlns:sodipodi="http://sodipodi.sourceforge.net/DTD/sodipodi-0.dtd"
   xmlns="http://www.w3.org/2000/svg"
   xmlns:svg="http://www.w3.org/2000/svg">
  <sodipodi:namedview
     id="namedview1"
     pagecolor="#ffffff"
     bordercolor="#000000"
     borderopacity="0.25"
     inkscape:showpageshadow="2"
     inkscape:pageopacity="0.0"
     inkscape:pagecheckerboard="0"
     inkscape:deskcolor="#d1d1d1"
     inkscape:document-units="mm"
     inkscape:zoom="0.79642256"
     inkscape:cx="396.7743"
     inkscape:cy="561.25984"
     inkscape:window-width="1918"
     inkscape:window-height="1044"
     inkscape:window-x="0"
     inkscape:window-y="0"
     inkscape:window-maximized="1"
     inkscape:current-layer="layer1" />
  <defs
     id="defs1" />
  <g
     inkscape:label="Layer 1"
     inkscape:groupmode="layer"
     id="layer1">
    <path
       style="fill:#000000;fill-opacity:0.027451;fill-rule:evenodd;stroke:#000000;stroke-width:1"
       d="m 37.214542,104.24925 c 98.849468,0 98.849468,0 98.849468,0 -5.07082,5.07082 -5.07082,5.07082 -5.07082,5.07082"
       id="path1" />
    <path
       style="fill:#000000;fill-opacity:0.027451;fill-rule:evenodd;stroke:#000000;stroke-width:1"
       d="m 135.34767,104.88124 c -4.25845,-4.25845 -4.25845,-4.25845 -4.25845,-4.25845"
       id="path2" />
    <path
       style="fill:#000000;fill-opacity:0.027451;fill-rule:evenodd;stroke:#000000;stroke-width:1"
       d="M 38.773097,104.69437 C 81.03899,62.428474 81.03899,62.428474 81.03899,62.428474 c 0,6.81235 0,6.81235 0,6.81235"
       id="path3" />
    <path
       style="fill:#000000;fill-opacity:0.027451;fill-rule:evenodd;stroke:#000000;stroke-width:1"
       d="m 74.146652,60.669087 c 0,0 0,0 6.767108,1.813243 0,40.52631 0,40.52631 0,40.52631"
       id="path4" />
    <path
       style="fill:#000000;fill-opacity:0.027451;fill-rule:evenodd;stroke:#000000;stroke-width:1"
       d="m 85.602402,63.898136 c 1.389152,-2.77831 0.880512,-7.008645 2.943214,-9.758809 1.263716,3.83239 3.462779,7.7746 5.559407,10.960492"
       id="path5" />
    <path
       style="fill:#000000;fill-opacity:0.027451;fill-rule:evenodd;stroke:#000000;stroke-width:1"
       d="m 87.193397,60.974385 c 1.46908,-0.595286 3.577442,-1.39514 4.45635,-2.261915"
       id="path6" />
    <path
       style="fill:#000000;fill-opacity:0.027451;fill-rule:evenodd;stroke:#000000;stroke-width:1"
       d="m 65.369743,61.497365 c -3.163956,-0.08181 -3.950078,-0.810823 -4.579633,2.529245 -1.16301,6.170287 7.721547,3.449037 8.084759,-1.797336 0.08333,-1.203711 -3.78171,3.435295 -1.171837,5.048107 3.258614,2.013715 7.37361,1.787816 7.37361,-2.359242"
       id="path7" />
    <path
       style="fill:#000000;fill-opacity:0.027451;fill-rule:evenodd;stroke:#000000;stroke-width:1"
       d="m 59.87652,58.528195 c 3.290533,1.751516 7.133278,-0.585681 10.184458,-0.439925 0.01048,5.29e-4 0,1.6125 0,1.680541"
       id="path8" />
    <path
       style="fill:#000000;fill-opacity:0.027451;fill-rule:evenodd;stroke:#000000;stroke-width:1"
       d="m 89.382641,117.89082 c 8.304223,-2.79527 12.016889,-15.79786 -0.441222,-3.28192 -2.529033,2.54077 -3.701311,3.26099 -5.02345,6.29262 -2.574967,5.90432 4.457726,6.44877 8.341704,0.84091 2.694702,-3.89072 -4.379786,-0.1112 -4.379786,-2.83031"
       id="path9" />
    <path
       style="fill:#000000;fill-opacity:0.027451;fill-rule:evenodd;stroke:#000000;stroke-width:1"
       d="m 83.481936,112.07836 c 3.088243,0.6738 6.237985,1.35741 9.385067,1.35741"
       id="path10" />
    <path
       style="fill:#000000;fill-opacity:0.027451;fill-rule:evenodd;stroke:#000000;stroke-width:1"
       d="m 75.831913,103.81452 c -3.838998,-10.263739 -1.69414,-7.202314 5.063678,-7.202314 0.507429,0 -0.624652,0.822812 -0.785116,1.304203"
       id="path11" />
    <path
       style="fill:#000000;fill-opacity:0.027451;fill-rule:evenodd;stroke:#000000;stroke-width:1"
       d="m 79.135893,120.82366 c 0.858604,-3.43442 -0.0888,-7.08544 -1.986802,-10.23118 1.164749,3.67021 -10.317083,14.7268 -4.849556,5.48284 2.505033,1.27893 6.052552,-0.58042 8.091247,0.36725"
       id="path12" />
    <path
       style="fill:#000000;fill-opacity:0.027451;fill-rule:evenodd;stroke:#000000;stroke-width:1"
       d="m 83.753157,108.79904 c 1.386581,2.66152 0.955236,4.46999 -0.857787,6.53399"
       id="path13" />
    <path
       style="fill:#000000;fill-opacity:0.027451;fill-rule:evenodd;stroke:#000000;stroke-width:1"
       d="m 38.356529,113.14767 c -1.199348,4.59013 -2.28151,4.89191 -0.01037,9.01652 3.080478,5.59449 12.107148,-3.98395 10.806062,-10.56988 -0.925311,-4.68381 -6.940838,0.28714 -8.836133,2.20482 -1.489538,1.50713 -1.756143,4.46999 -2.155502,6.412"
       id="path14" />
  </g>
</svg>
