<?xml version="1.0" encoding="UTF-8" standalone="no"?>
<!-- Created with Inkscape (http://www.inkscape.org/) -->

<svg
   width="210mm"
   height="297mm"
   viewBox="0 0 210 297"
   version="1.1"
   id="svg1"
   inkscape:version="1.3.2 (091e20ef0f, 2023-11-25, custom)"
   sodipodi:docname="scalar-product.svg"
   xmlns:inkscape="http://www.inkscape.org/namespaces/inkscape"
   xmlns:sodipodi="http://sodipodi.sourceforge.net/DTD/sodipodi-0.dtd"
   xmlns="http://www.w3.org/2000/svg"
   xmlns:svg="http://www.w3.org/2000/svg">
  <sodipodi:namedview
     id="namedview1"
     pagecolor="#ffffff"
     bordercolor="#000000"
     borderopacity="0.25"
     inkscape:showpageshadow="2"
     inkscape:pageopacity="0.0"
     inkscape:pagecheckerboard="0"
     inkscape:deskcolor="#d1d1d1"
     inkscape:document-units="mm"
     inkscape:zoom="0.79642256"
     inkscape:cx="396.7743"
     inkscape:cy="561.25984"
     inkscape:window-width="1918"
     inkscape:window-height="1044"
     inkscape:window-x="0"
     inkscape:window-y="0"
     inkscape:window-maximized="1"
     inkscape:current-layer="layer1" />
  <defs
     id="defs1" />
  <g
     inkscape:label="Layer 1"
     inkscape:groupmode="layer"
     id="layer1">
    <path
       style="fill:#000000;fill-opacity:0.027451;fill-rule:evenodd;stroke:#000000;stroke-width:1"
       d="m 37.131487,80.185743 c 59.68784,-15.993308 59.654611,-15.290964 59.654611,-15.290964 -5.428337,5.428337 -4.758715,6.097959 -4.758715,6.097959"
       id="path1" />
    <path
       style="fill:#000000;fill-opacity:0.027451;fill-rule:evenodd;stroke:#000000;stroke-width:1"
       d="M 96.056785,64.91684 C 90.130124,63.368668 90.130124,63.368668 90.130124,63.368668"
       id="path2" />
    <path
       style="fill:#000000;fill-opacity:0.027451;fill-rule:evenodd;stroke:#000000;stroke-width:1"
       d="m 36.879731,79.787344 c 57.461474,27.078096 57.461474,27.078096 57.461474,27.078096 -1.535194,-5.88643 -1.535194,-5.88643 -1.535194,-5.88643"
       id="path3" />
    <path
       style="fill:#000000;fill-opacity:0.027451;fill-rule:evenodd;stroke:#000000;stroke-width:1"
       d="m 95.31579,107.23399 c -6.047348,0.10252 -6.047348,0.10252 -6.047348,0.10252 v 0"
       id="path4" />
    <path
       style="fill:#000000;fill-opacity:0.027451;fill-rule:evenodd;stroke:#000000;stroke-width:1"
       d="m 51.277869,74.797633 c 0.941107,0.381559 4.628456,8.434409 0.866872,12.587827"
       id="path5" />
    <path
       style="fill:#000000;fill-opacity:0.027451;fill-rule:evenodd;stroke:#000000;stroke-width:1"
       d="m 73.782821,78.271615 c -4.7703,2.281804 -12.124036,6.374358 -16.698981,1.92451 -0.239628,-0.233074 5.679832,-1.369094 8.660942,1.505347 1.446602,1.394839 3.392922,5.298567 5.162307,5.298567"
       id="path6" />
    <path
       style="fill:#000000;fill-opacity:0.027451;fill-rule:evenodd;stroke:#000000;stroke-width:1"
       d="m 72.499383,60.745988 c 0.220178,-0.662699 0.819439,-1.3081 0.660535,-1.988097 -0.210383,-0.900309 -6.546067,-0.984679 -3.627109,6.205667 0.449426,1.107083 0.555635,2.740967 1.670158,3.171613 1.351061,0.522041 2.523607,-4.840414 2.386497,-5.442611 -0.165098,-0.725115 -1.707751,-2.360735 -1.090081,-1.946572 2.874518,1.927437 3.420369,5.355625 5.402384,7.879718 1.971606,2.51084 7.002463,1.225769 7.002463,-1.82199"
       id="path7" />
    <path
       style="fill:#000000;fill-opacity:0.027451;fill-rule:evenodd;stroke:#000000;stroke-width:1"
       d="m 67.399367,56.406433 c 3.02527,0.423672 5.93706,-0.242679 8.775142,-1.188707"
       id="path8" />
    <path
       style="fill:#000000;fill-opacity:0.027451;fill-rule:evenodd;stroke:#000000;stroke-width:1"
       d="m 54.285969,107.7401 c 1.020649,-1.44269 8.760508,-7.5921 7.29964,-9.434378 -0.550349,-0.694037 -5.76744,4.912308 -6.003224,5.353068 -0.673303,1.25865 -0.90642,2.7082 -1.296416,4.08131 -1.970542,6.93795 5.497666,4.2183 2.756345,0.56321 -1.173771,-1.56503 -0.01286,-1.56734 -2.756345,-0.56321 z"
       id="path9" />
    <path
       style="fill:#000000;fill-opacity:0.027451;fill-rule:evenodd;stroke:#000000;stroke-width:1"
       d="m 50.763974,97.750301 c 3.911981,0.883216 8.19088,0.760267 11.706677,2.024433"
       id="path10" />
  </g>
</svg>
